<svg id="Group_18" data-name="Group 18" xmlns="http://www.w3.org/2000/svg" viewBox="0 0 54.366 39.539">
  <g id="Group_6" data-name="Group 6" transform="translate(0 0)">
    <g id="Group_5" data-name="Group 5">
      <path id="Path_11" data-name="Path 11" d="M53.131,0H1.236A1.167,1.167,0,0,0,0,1.236V38.3a1.167,1.167,0,0,0,1.236,1.236h51.9A1.167,1.167,0,0,0,54.366,38.3V1.236A1.167,1.167,0,0,0,53.131,0ZM51.9,34.1,36.574,18.781l-1.73,1.73L51.4,37.068H2.965L19.522,20.511l-1.73-1.73L2.471,34.1V2.471H51.9Z" transform="translate(0 0)"/>
    </g>
  </g>
  <g id="Group_8" data-name="Group 8" transform="translate(2.471 2.471)">
    <g id="Group_7" data-name="Group 7">
      <path id="Path_12" data-name="Path 12" d="M48.953,2,26.712,24.241,4.471,2H2v.988L25.847,26.835a1.194,1.194,0,0,0,1.73,0L51.424,2.988V2Z" transform="translate(-2 -2)"/>
    </g>
  </g>
</svg>
