<?xml version="1.0" encoding="utf-8"?>
<!-- Generator: Adobe Illustrator 22.1.0, SVG Export Plug-In . SVG Version: 6.00 Build 0)  -->
<svg version="1.1" id="Group_19" xmlns="http://www.w3.org/2000/svg" xmlns:xlink="http://www.w3.org/1999/xlink" x="0px" y="0px"
	 viewBox="0 0 106.7 213.8" style="enable-background:new 0 0 106.7 213.8;" xml:space="preserve">
<style type="text/css">
	.st0{fill:#FFFFFF;stroke:#000000;stroke-width:3;stroke-miterlimit:10;}
	.st1{stroke:#000000;stroke-width:3;stroke-miterlimit:10;}
	.st2{fill:#FFFFFF;}
</style>
<title>Path 26</title>
<g>
	<circle class="st0" cx="53.3" cy="160.5" r="51.8"/>
	<g id="Group_6">
		<g id="Group_5">
			<path id="Path_11" d="M79.3,140.7H27.4c-0.6,0-1.2,0.4-1.2,1.1V179c0,0.6,0.4,1.2,1.1,1.2h52c0.6,0,1.2-0.5,1.2-1.1v-37.2
				c0-0.6-0.5-1.2-1.1-1.2c0,0,0,0,0,0H79.3z M78,174.8l-15.3-15.3l-1.7,1.7l16.6,16.6H29.1l16.5-16.6l-1.7-1.7l-15.3,15.3v-31.6H78
				V174.8z"/>
		</g>
	</g>
	<g id="Group_8">
		<g id="Group_7">
			<path id="Path_12" d="M75.6,143.2l-22.2,22.2l-22.2-22.2h-2.5v1L52.5,168c0.5,0.5,1.2,0.5,1.7,0l0,0L78,144.1v-1L75.6,143.2z"/>
		</g>
	</g>
	<circle class="st1" cx="53.3" cy="53.6" r="51.8"/>
	<g id="Group_6_1_">
		<g id="Group_5_1_">
			<path id="Path_11_1_" class="st2" d="M79.3,33.5H27.4c-0.6,0-1.2,0.4-1.2,1.1v37.2c0,0.6,0.4,1.2,1.1,1.2h52
				c0.6,0,1.2-0.5,1.2-1.1V34.8c0-0.6-0.5-1.2-1.1-1.2c0,0,0,0,0,0H79.3z M78,67.6L62.7,52.3L61,54.1l16.6,16.6H29.1l16.5-16.6
				l-1.7-1.7L28.6,67.6V36H78V67.6z"/>
		</g>
	</g>
	<g id="Group_8_1_">
		<g id="Group_7_1_">
			<path id="Path_12_1_" class="st2" d="M75.5,36L53.3,58.3L31.1,36h-2.5v1l23.8,23.8c0.5,0.5,1.2,0.5,1.7,0l0,0L78,37v-1L75.5,36z"
				/>
		</g>
	</g>
</g>
</svg>
