<svg id="Group_19" data-name="Group 19" xmlns="http://www.w3.org/2000/svg" viewBox="0 0 106.64 106.64"><defs><style>.cls-1{stroke:#fff;stroke-miterlimit:10;stroke-width:3px;}.cls-2{fill:#fff;}</style></defs><title>icon-mail-hover</title><circle class="cls-1" cx="53.32" cy="53.32" r="51.82"/><g id="Group_6" data-name="Group 6"><g id="Group_5" data-name="Group 5"><path id="Path_11" data-name="Path 11" class="cls-2" d="M53.13,0H1.24A1.17,1.17,0,0,0,0,1.09V38.3a1.17,1.17,0,0,0,1.09,1.24H53.14a1.18,1.18,0,0,0,1.23-1.1V1.24A1.17,1.17,0,0,0,53.27,0ZM51.9,34.1,36.57,18.78l-1.73,1.73L51.4,37.07H3L19.52,20.51l-1.73-1.73L2.47,34.1V2.47H51.9Z" transform="translate(26.13 33.55)"/></g></g><g id="Group_8" data-name="Group 8"><g id="Group_7" data-name="Group 7"><path id="Path_12" data-name="Path 12" class="cls-2" d="M49.42,2.47,27.18,24.71,4.94,2.47H2.47v1L26.32,27.31a1.21,1.21,0,0,0,1.69,0,.08.08,0,0,1,0,0L51.89,3.46v-1Z" transform="translate(26.13 33.55)"/></g></g></svg>